<svg width="22" height="23" viewBox="0 0 22 23" fill="none" xmlns="http://www.w3.org/2000/svg">
<path d="M16.5 12.4144H11.9166V16.9977C11.9166 17.2408 11.8201 17.474 11.6482 17.6459C11.4763 17.8178 11.2431 17.9144 11 17.9144C10.7569 17.9144 10.5237 17.8178 10.3518 17.6459C10.1799 17.474 10.0833 17.2408 10.0833 16.9977V12.4144H5.49998C5.25686 12.4144 5.02371 12.3178 4.8518 12.1459C4.67989 11.974 4.58331 11.7408 4.58331 11.4977C4.58331 11.2546 4.67989 11.0214 4.8518 10.8495C5.02371 10.6776 5.25686 10.5811 5.49998 10.5811H10.0833V5.99772C10.0833 5.75461 10.1799 5.52145 10.3518 5.34954C10.5237 5.17763 10.7569 5.08105 11 5.08105C11.2431 5.08105 11.4763 5.17763 11.6482 5.34954C11.8201 5.52145 11.9166 5.75461 11.9166 5.99772V10.5811H16.5C16.7431 10.5811 16.9763 10.6776 17.1482 10.8495C17.3201 11.0214 17.4166 11.2546 17.4166 11.4977C17.4166 11.7408 17.3201 11.974 17.1482 12.1459C16.9763 12.3178 16.7431 12.4144 16.5 12.4144Z" fill="white"/>
</svg>
