<svg width="14" height="14" viewBox="0 0 14 14" fill="none" xmlns="http://www.w3.org/2000/svg">
<path d="M1.75 3.5H2.91667H12.25" stroke="#021526" stroke-linecap="round" stroke-linejoin="round"/>
<path d="M11.0834 3.50033V11.667C11.0834 11.9764 10.9605 12.2732 10.7417 12.492C10.5229 12.7107 10.2262 12.8337 9.91675 12.8337H4.08341C3.774 12.8337 3.47725 12.7107 3.25846 12.492C3.03966 12.2732 2.91675 11.9764 2.91675 11.667V3.50033M4.66675 3.50033V2.33366C4.66675 2.02424 4.78966 1.72749 5.00846 1.5087C5.22725 1.28991 5.524 1.16699 5.83341 1.16699H8.16675C8.47617 1.16699 8.77291 1.28991 8.99171 1.5087C9.2105 1.72749 9.33342 2.02424 9.33342 2.33366V3.50033" stroke="#021526" stroke-linecap="round" stroke-linejoin="round"/>
<path d="M5.83325 6.41699V9.91699" stroke="#021526" stroke-linecap="round" stroke-linejoin="round"/>
<path d="M8.16675 6.41699V9.91699" stroke="#021526" stroke-linecap="round" stroke-linejoin="round"/>
</svg>
